<svg width="117" height="90" viewBox="0 0 117 90" fill="none" xmlns="http://www.w3.org/2000/svg">
<path d="M41.8486 74.0735H42.0986V73.8235V72.1865C42.0986 66.7034 39.9205 61.4448 36.0433 57.5676C32.1661 53.6904 26.9075 51.5122 21.4243 51.5122C15.9411 51.5122 10.6826 53.6904 6.80537 57.5676C2.92818 61.4448 0.75 66.7034 0.75 72.1865V73.8235V74.0735H1H41.8486ZM4.63032 70.2996C5.09491 66.2252 7.02564 62.455 10.0674 59.6954C13.1774 56.8741 17.2261 55.3112 21.4251 55.3112C25.6242 55.3112 29.6729 56.8741 32.7828 59.6954C35.8246 62.455 37.7554 66.2252 38.22 70.2996H4.63032Z" fill="#FF6644" stroke="#FF6644" stroke-width="0.5"/>
<path d="M4.42285 71.9429H4.17247L4.17285 72.1933C4.17988 76.7725 6.00207 81.1621 9.24005 84.4C12.478 87.638 16.8676 89.4602 21.4468 89.4672L21.4477 89.4672C26.0236 89.4589 30.4093 87.6352 33.6421 84.3965C36.8748 81.1579 38.6905 76.7689 38.6905 72.1929V71.9429H38.4405H35.1665H34.9165V72.1929C34.9165 75.7693 33.4958 79.1992 30.9669 81.7281C28.438 84.257 25.0081 85.6778 21.4317 85.6778C17.8552 85.6778 14.4253 84.257 11.8964 81.7281C9.36749 79.1992 7.94677 75.7693 7.94677 72.1929V71.9429H7.69677H4.42285Z" fill="#FF6644" stroke="#FF6644" stroke-width="0.5"/>
<path d="M21.4468 82.3167L21.448 82.3167C24.1277 82.3073 26.6943 81.2355 28.5847 79.3362C30.4752 77.437 31.5351 74.8655 31.5319 72.1857L31.5317 71.936H31.2819H28.008H27.758V72.186C27.758 73.8659 27.0907 75.4769 25.9029 76.6647C24.7151 77.8525 23.104 78.5198 21.4242 78.5198C19.7443 78.5198 18.1333 77.8525 16.9455 76.6647C15.7576 75.4769 15.0903 73.8659 15.0903 72.186V71.936H14.8403H11.5664H11.3161L11.3164 72.1863C11.3195 74.8721 12.3878 77.447 14.287 79.3461C16.1861 81.2453 18.761 82.3136 21.4468 82.3167Z" fill="#FF6644" stroke="#FF6644" stroke-width="0.5"/>
<path d="M81.793 89.4705L81.7942 89.4705C86.3777 89.4652 90.772 87.6423 94.0134 84.4016C97.2547 81.1608 99.0785 76.7669 99.0846 72.1834L99.0846 72.1823C99.0804 70.7029 98.8948 69.2295 98.5319 67.7952L98.4707 67.5536L98.2289 67.614L95.0532 68.4079L94.8098 68.4688L94.8715 68.7119C95.1591 69.8462 95.3066 71.0115 95.3107 72.1817C95.3098 74.1024 94.8995 76.0008 94.1071 77.7505C93.3147 79.5002 92.1584 81.0609 90.7152 82.3286C89.272 83.5962 87.5752 84.5416 85.7378 85.1017C83.9005 85.6618 81.9648 85.8238 80.0599 85.5769C78.155 85.3299 76.3246 84.6797 74.6908 83.6696C73.0571 82.6595 71.6574 81.3127 70.5851 79.719C69.5129 78.1253 68.7927 76.3214 68.4726 74.4274C68.1525 72.5334 68.2399 70.5929 68.7288 68.7354L68.7924 68.4941L68.5512 68.4301L65.3853 67.5904L65.1425 67.526L65.0793 67.7691C64.4138 70.327 64.342 73.0033 64.8694 75.5933C65.3968 78.1832 66.5094 80.6183 68.1222 82.7124C69.7349 84.8064 71.8052 86.504 74.1746 87.6753C76.544 88.8466 79.1499 89.4607 81.793 89.4705Z" fill="#FF6644" stroke="#FF6644" stroke-width="0.5"/>
<path d="M81.7931 82.181H81.7939L81.8037 82.181L81.8045 82.181C83.5424 82.1752 85.2489 81.7171 86.756 80.8517C88.2631 79.9863 89.5189 78.7434 90.3998 77.2453C91.2808 75.7472 91.7565 74.0455 91.7801 72.3078C91.8038 70.5701 91.3746 68.8561 90.5348 67.3346L90.4136 67.115L90.1944 67.2369L87.333 68.828L87.1152 68.9491L87.2356 69.1673C87.7572 70.1127 88.0233 71.1778 88.0076 72.2574C87.9919 73.3371 87.6949 74.394 87.1459 75.3238C86.597 76.2536 85.8151 77.0242 84.8774 77.5595C83.9397 78.0949 82.8786 78.3764 81.7988 78.3764C80.719 78.3764 79.6579 78.0949 78.7202 77.5595C77.7825 77.0242 77.0006 76.2536 76.4517 75.3238C75.9027 74.394 75.6057 73.3371 75.59 72.2574C75.5743 71.1778 75.8404 70.1127 76.362 69.1673L76.4824 68.9491L76.2646 68.828L73.4032 67.2369L73.1841 67.115L73.0629 67.3345C72.2225 68.856 71.7929 70.57 71.8163 72.308C71.8398 74.0459 72.3154 75.7478 73.1964 77.2461C74.0775 78.7443 75.3335 79.9873 76.8409 80.8526C78.3483 81.7179 80.055 82.1757 81.7931 82.181Z" fill="#FF6644" stroke="#FF6644" stroke-width="0.5"/>
<path d="M102.04 70.1463H102.308L102.289 69.8792L102.17 68.1375C101.714 61.5076 99.4899 55.121 95.7279 49.6428C91.9662 44.165 86.8049 39.7959 80.7812 36.9902C80.7808 36.9899 80.7803 36.9897 80.7798 36.9895L80.4701 36.8403L80.2451 36.7319L80.1365 36.9567L78.7123 39.9033L78.6038 40.1277L78.828 40.2368L79.1374 40.3874L79.1374 40.3875L79.1413 40.3893C84.2928 42.7867 88.7497 46.4553 92.0927 51.0498C95.3802 55.5681 97.4842 60.8358 98.2151 66.3724H39.7961H39.5461V66.6224V69.8963V70.1463H39.7961H102.04Z" fill="#FF6644" stroke="#FF6644" stroke-width="0.5"/>
<path d="M18.6267 54.202H18.8768L18.8767 53.9519L18.8751 46.568C18.8878 37.2315 22.0437 28.1712 27.8343 20.8473L29.751 18.4281L29.9062 18.2322L29.7103 18.0769L27.1452 16.0438L26.9492 15.8885L26.794 16.0845L24.8771 18.5039L24.8769 18.5041C18.5595 26.4953 15.1165 36.3806 15.1028 46.5673V46.5676V53.952V54.202H15.3528H18.6267Z" fill="#FF6644" stroke="#FF6644" stroke-width="0.5"/>
<path d="M29.9042 48.8019L29.9041 48.802L29.9094 48.8091C31.1644 50.4947 32.7515 51.9052 34.5729 52.9536C36.3927 54.001 38.4076 54.6647 40.4936 54.9037C41.9857 55.1413 43.4937 55.2652 45.0046 55.2743C48.4995 55.434 51.9409 54.3703 54.736 52.266L54.7361 52.2661L54.7416 52.2618C58.084 49.5955 59.9689 45.2436 60.386 39.3829L60.4037 39.1335L60.1543 39.1158L56.8804 38.8834L56.631 38.8657L56.6133 39.115C56.2703 43.9491 54.8272 47.3589 52.3803 49.3123C49.8564 51.3251 46.1772 51.9569 41.0646 51.1726L41.0647 51.1723L41.053 51.1711C39.4743 51.0042 37.9462 50.5169 36.5623 49.739C35.1801 48.962 33.9708 47.9115 33.0082 46.6516C29.7881 41.9883 30.3917 35.783 31.8526 30.6648C33.2884 25.6345 35.5304 21.7312 35.6388 21.5425C35.6405 21.5396 35.6416 21.5376 35.6423 21.5365L35.7642 21.3226L35.5522 21.1974L32.7334 19.5326L32.5179 19.4054L32.3908 19.621C32.1749 19.9875 29.5954 24.426 28.0443 30.1899C26.4954 35.9455 25.9554 43.0863 29.9042 48.8019Z" fill="#FF6644" stroke="#FF6644" stroke-width="0.5"/>
<path d="M32.1304 22.2199V22.4699H32.3804H35.854H35.8543C38.649 22.4668 41.3284 21.3552 43.3046 19.379C45.2808 17.4028 46.3924 14.7234 46.3955 11.9286V11.9283V11.2916V11.2913C46.3924 8.49651 45.2808 5.8171 43.3046 3.8409C41.3284 1.8647 38.649 0.753107 35.8543 0.75H35.854H32.3804H32.1304V1V22.2199ZM35.9043 18.6957V4.52416C37.6799 4.53947 39.3793 5.25146 40.6359 6.50802C41.9047 7.77688 42.6183 9.49735 42.62 11.2918V11.9281C42.6183 13.7223 41.905 15.4425 40.6364 16.7113C39.3798 17.9682 37.6802 18.6804 35.9043 18.6957Z" fill="#FF6644" stroke="#FF6644" stroke-width="0.5"/>
<path d="M32.4292 20.1468H32.4293C33.1355 20.1464 33.8386 20.052 34.5199 19.8663L34.7612 19.8005L34.6953 19.5592L33.8326 16.3999L33.7665 16.1578L33.5247 16.2248C33.1674 16.3239 32.7987 16.3758 32.428 16.3794C31.1652 16.3791 29.9541 15.8773 29.0611 14.9843C28.1678 14.0911 27.666 12.8795 27.666 11.6163C27.666 10.353 28.1678 9.14145 29.0611 8.24818C29.9541 7.35519 31.1652 6.85339 32.428 6.85308C32.7987 6.85669 33.1674 6.90867 33.5247 7.00769L33.7665 7.07472L33.8326 6.83263L34.6953 3.6733L34.7607 3.4336L34.5214 3.36668C33.8407 3.17634 33.1377 3.07745 32.4309 3.07262V3.07262H32.4292C30.165 3.07262 27.9936 3.97206 26.3925 5.57307C24.7915 7.17409 23.8921 9.34554 23.8921 11.6097C23.8921 13.8739 24.7915 16.0453 26.3925 17.6464C27.9936 19.2474 30.165 20.1468 32.4292 20.1468Z" fill="#FF6644" stroke="#FF6644" stroke-width="0.5"/>
<path d="M58.3852 40.4209H78.4281C80.0037 40.4209 81.5148 39.795 82.629 38.6809C83.7431 37.5667 84.369 36.0557 84.369 34.48C84.369 32.9044 83.7431 31.3933 82.629 30.2792C81.5148 29.1651 80.0038 28.5392 78.4281 28.5392H58.3852C56.8096 28.5392 55.2985 29.1651 54.1844 30.2792C53.0703 31.3933 52.4443 32.9044 52.4443 34.48C52.4443 36.0557 53.0703 37.5667 54.1844 38.6809C55.2985 39.795 56.8096 40.4209 58.3852 40.4209ZM56.8529 32.9478C57.2593 32.5414 57.8105 32.3131 58.3852 32.3131H78.4281C79.0028 32.3131 79.554 32.5414 79.9604 32.9478C80.3668 33.3541 80.5951 33.9053 80.5951 34.48C80.5951 35.0547 80.3668 35.6059 79.9604 36.0123C79.554 36.4187 79.0028 36.647 78.4281 36.647H58.3852C57.8105 36.647 57.2593 36.4187 56.8529 36.0123C56.4466 35.6059 56.2183 35.0547 56.2183 34.48C56.2183 33.9053 56.4466 33.3541 56.8529 32.9478Z" fill="#FF6644" stroke="#FF6644" stroke-width="0.5"/>
<path d="M95.1122 51.5936L95.2924 51.7671L95.4658 51.5868L110.364 36.0979L110.434 36.0253V35.9246V30.4261V30.1761H110.184H106.91H106.66V30.4261V34.5045L92.7466 48.9698L92.5733 49.1499L92.7534 49.3232L95.1122 51.5936Z" fill="#FF6644" stroke="#FF6644" stroke-width="0.5"/>
<path d="M115.587 32.3128H115.837V32.0628V4.23456V3.98456H115.587H84.4851H84.2351V4.23456V32.0628V32.3128H84.4851H115.587ZM112.063 28.5389H88.009V7.75847H112.063V28.5389Z" fill="#FF6644" stroke="#FF6644" stroke-width="0.5"/>
<path d="M43.759 16.443V16.693H44.009H51.5492C52.2304 16.7174 52.9095 16.6046 53.5462 16.3613C54.1843 16.1174 54.7667 15.7473 55.2586 15.2732C55.7505 14.7991 56.1417 14.2307 56.4089 13.602C56.6762 12.9733 56.8139 12.2971 56.8139 11.614C56.8139 10.9308 56.6762 10.2546 56.4089 9.62592C56.1417 8.99719 55.7505 8.4288 55.2586 7.9547C54.7667 7.4806 54.1843 7.11054 53.5462 6.86663C52.9095 6.62327 52.2304 6.51048 51.5492 6.53494H44.009H43.759V6.78494V10.0589V10.3089H44.009H51.5538H51.5619L51.57 10.3083C51.7485 10.2967 51.9276 10.3219 52.0961 10.3823C52.2645 10.4426 52.4188 10.5369 52.5494 10.6593C52.68 10.7817 52.7841 10.9295 52.8552 11.0937C52.9264 11.2579 52.9631 11.435 52.9631 11.614C52.9631 11.7929 52.9264 11.97 52.8552 12.1342C52.7841 12.2984 52.68 12.4462 52.5494 12.5686C52.4188 12.691 52.2645 12.7853 52.0961 12.8457C51.9276 12.906 51.7485 12.9312 51.57 12.9196L51.5619 12.9191H51.5538H44.009H43.759V13.1691V16.443Z" fill="#FF6644" stroke="#FF6644" stroke-width="0.5"/>
<path d="M78.4243 28.5392H78.1743V28.7892V32.0631V32.3131H78.4243H86.7597H87.0097V32.0631V28.7892V28.5392H86.7597H78.4243Z" fill="#FF6644" stroke="#FF6644" stroke-width="0.5"/>
<path d="M99.2175 5.6218H98.9675V5.8718V12.4196V12.6696H99.2175H102.491H102.741V12.4196V5.8718V5.6218H102.491H99.2175Z" fill="#FF6644" stroke="#FF6644" stroke-width="0.5"/>
</svg>
