<svg width="19" height="23" viewBox="0 0 19 23" fill="none" xmlns="http://www.w3.org/2000/svg">
<path d="M9.40808 0C6.9129 0 4.51992 0.933475 2.75556 2.59507C0.991206 4.25667 0 6.51028 0 8.86013C0 14.8407 8.29087 21.5966 8.64367 21.8845C8.85669 22.0561 9.12778 22.1504 9.40808 22.1504C9.68839 22.1504 9.95947 22.0561 10.1725 21.8845C10.5841 21.5966 18.8162 14.8407 18.8162 8.86013C18.8162 6.51028 17.825 4.25667 16.0606 2.59507C14.2962 0.933475 11.9033 0 9.40808 0ZM9.40808 19.5477C6.90318 17.3326 2.35202 12.5592 2.35202 8.86013C2.35202 7.09774 3.09542 5.40753 4.41869 4.16134C5.74196 2.91514 7.5367 2.21503 9.40808 2.21503C11.2795 2.21503 13.0742 2.91514 14.3975 4.16134C15.7207 5.40753 16.4641 7.09774 16.4641 8.86013C16.4641 12.5592 11.913 17.3437 9.40808 19.5477ZM9.40808 4.43006C8.47771 4.43006 7.56823 4.68988 6.79466 5.17666C6.02108 5.66345 5.41815 6.35533 5.06211 7.16481C4.70608 7.9743 4.61292 8.86504 4.79443 9.72439C4.97593 10.5837 5.42395 11.3731 6.08182 11.9927C6.73969 12.6122 7.57787 13.0341 8.49037 13.2051C9.40286 13.376 10.3487 13.2883 11.2082 12.953C12.0678 12.6177 12.8025 12.0499 13.3193 11.3213C13.8362 10.5928 14.1121 9.73631 14.1121 8.86013C14.1121 7.6852 13.6165 6.5584 12.7343 5.7276C11.8522 4.8968 10.6557 4.43006 9.40808 4.43006ZM9.40808 11.0752C8.94289 11.0752 8.48816 10.9452 8.10137 10.7019C7.71458 10.4585 7.41312 10.1125 7.2351 9.70778C7.05708 9.30304 7.0105 8.85767 7.10125 8.428C7.19201 7.99832 7.41602 7.60364 7.74495 7.29386C8.07389 6.98409 8.49298 6.77312 8.94922 6.68766C9.40547 6.60219 9.87838 6.64605 10.3082 6.8137C10.7379 6.98136 11.1053 7.26526 11.3637 7.62952C11.6222 7.99378 11.7601 8.42204 11.7601 8.86013C11.7601 9.44759 11.5123 10.011 11.0712 10.4264C10.6301 10.8418 10.0319 11.0752 9.40808 11.0752Z" fill="#E14134"/>
</svg>
