<svg width="24" height="24" viewBox="0 0 24 24" fill="none" xmlns="http://www.w3.org/2000/svg">
<path d="M20.68 12.787C20.4233 12.787 20.155 12.7054 19.8983 12.647C19.3786 12.5325 18.8678 12.3804 18.37 12.192C17.8288 11.9951 17.2338 12.0054 16.6997 12.2207C16.1655 12.4361 15.7299 12.8414 15.4767 13.3587L15.22 13.8837C14.0837 13.2516 13.0395 12.4665 12.1167 11.5504C11.2006 10.6276 10.4155 9.58337 9.78333 8.44704L10.2733 8.12037C10.7906 7.86711 11.1959 7.43149 11.4113 6.89734C11.6267 6.3632 11.6369 5.76827 11.44 5.22704C11.2548 4.7282 11.1028 4.21763 10.985 3.6987C10.9267 3.44204 10.88 3.1737 10.845 2.90537C10.7033 2.08359 10.2729 1.3394 9.63122 0.806816C8.98955 0.27423 8.17881 -0.0117528 7.345 0.000370187H3.845C3.3422 -0.00435078 2.84429 0.0993192 2.38516 0.304322C1.92603 0.509326 1.51646 0.810849 1.18433 1.18837C0.852205 1.56588 0.605319 2.01053 0.460482 2.49204C0.315644 2.97354 0.276255 3.48061 0.344996 3.9787C0.966523 8.86632 3.1987 13.4076 6.68892 16.8851C10.1791 20.3627 14.7285 22.5783 19.6183 23.182H20.0617C20.922 23.1833 21.7526 22.8677 22.395 22.2954C22.7641 21.9653 23.0589 21.5606 23.26 21.1081C23.4612 20.6556 23.564 20.1655 23.5617 19.6704V16.1704C23.5474 15.36 23.2523 14.5797 22.7267 13.9626C22.2012 13.3456 21.4778 12.9301 20.68 12.787ZM21.2633 19.787C21.2631 19.9527 21.2276 20.1164 21.1592 20.2673C21.0908 20.4181 20.9911 20.5527 20.8667 20.662C20.7363 20.7746 20.5839 20.8587 20.4191 20.9089C20.2544 20.9591 20.081 20.9744 19.91 20.9537C15.5407 20.3935 11.4823 18.3946 8.37483 15.2724C5.26739 12.1501 3.28781 8.08226 2.74833 3.71037C2.72976 3.53947 2.74603 3.36659 2.79616 3.20216C2.8463 3.03773 2.92924 2.88517 3.04 2.7537C3.14932 2.62926 3.2839 2.52952 3.43477 2.46112C3.58564 2.39273 3.74935 2.35725 3.915 2.35704H7.41499C7.6863 2.351 7.95122 2.43973 8.16416 2.60795C8.3771 2.77618 8.52474 3.01337 8.58166 3.2787C8.62833 3.59759 8.68666 3.91259 8.75666 4.2237C8.89143 4.83871 9.0708 5.44308 9.29333 6.03204L7.65999 6.79037C7.52034 6.85444 7.39472 6.94547 7.29035 7.05823C7.18597 7.17099 7.1049 7.30325 7.05178 7.44743C6.99866 7.59161 6.97455 7.74486 6.98082 7.89838C6.98709 8.0519 7.02363 8.20267 7.08833 8.34204C8.7674 11.9386 11.6584 14.8296 15.255 16.5087C15.539 16.6254 15.8576 16.6254 16.1417 16.5087C16.2872 16.4567 16.4209 16.3762 16.535 16.2721C16.6492 16.1679 16.7415 16.0422 16.8067 15.902L17.53 14.2687C18.1331 14.4844 18.7487 14.6636 19.3733 14.8054C19.6844 14.8754 19.9994 14.9337 20.3183 14.9804C20.5837 15.0373 20.8209 15.1849 20.9891 15.3979C21.1573 15.6108 21.246 15.8757 21.24 16.147L21.2633 19.787Z" fill="#E14134"/>
</svg>
